<svg width="800" height="320" xmlns="http://www.w3.org/2000/svg">
  <!-- Dark Background -->
  <rect width="800" height="320" fill="#0f172a"/>
  
  <!-- Icon -->
  <g transform="translate(40, 75)">
    <defs>
      <linearGradient id="buildingGradDark" x1="0%" y1="0%" x2="0%" y2="100%">
        <stop offset="0%" style="stop-color:#818cf8;stop-opacity:1" />
        <stop offset="100%" style="stop-color:#a78bfa;stop-opacity:1" />
      </linearGradient>
    </defs>
    
    <rect x="0" y="20" width="60" height="80" fill="url(#buildingGradDark)" rx="4"/>
    <rect x="10" y="30" width="12" height="12" fill="#1e293b" opacity="0.8"/>
    <rect x="10" y="50" width="12" height="12" fill="#1e293b" opacity="0.8"/>
    <rect x="10" y="70" width="12" height="12" fill="#1e293b" opacity="0.8"/>
    <rect x="38" y="30" width="12" height="12" fill="#1e293b" opacity="0.8"/>
    <rect x="38" y="50" width="12" height="12" fill="#1e293b" opacity="0.8"/>
    <rect x="38" y="70" width="12" height="12" fill="#1e293b" opacity="0.8"/>
    <circle cx="30" cy="10" r="8" fill="#a78bfa"/>
    <circle cx="70" cy="40" r="6" fill="#f0abfc"/>
    <line x1="35" y1="12" x2="65" y2="38" stroke="#a78bfa" stroke-width="2" opacity="0.7"/>
    <path d="M 65 55 L 75 65 L 85 45" stroke="#4ade80" stroke-width="3" fill="none" stroke-linecap="round"/>
  </g>
  
  <!-- Main Text -->
  <text x="140" y="120" font-family="Arial, Helvetica, sans-serif" font-size="52" font-weight="bold" fill="#f8fafc">
    Estatelytic<tspan fill="#818cf8">AI</tspan>
  </text>
  
  <!-- Tagline -->
  <text x="140" y="160" font-family="Arial, Helvetica, sans-serif" font-size="24" font-weight="600" fill="#818cf8">
    India's Property UPI
  </text>
  <text x="140" y="190" font-family="Arial, Helvetica, sans-serif" font-size="18" font-weight="500" fill="#94a3b8">
    Transparent • Tracked • Trusted
  </text>
  
  <!-- Made in INDIA badge (dark version) with Official Ashoka Pillar -->
  <g transform="translate(140, 210)">
    <rect x="0" y="0" width="170" height="35" rx="17" fill="#1e293b" stroke="#334155" stroke-width="1.5"/>
    
    <!-- Official Ashoka Pillar (bright for dark bg) -->
    <g transform="translate(8, 5)">
      <ellipse cx="12" cy="23" rx="6" ry="2" fill="#B8860B"/>
      <path d="M 6 23 Q 6 20 12 19 Q 18 20 18 23" fill="#FFD700" stroke="#B8860B" stroke-width="0.3"/>
      <ellipse cx="12" cy="17" rx="7" ry="2" fill="#FFD700"/>
      <rect x="5" y="17" width="14" height="3" fill="#D4AF37" rx="0.5"/>
      <circle cx="7" cy="18" r="1" fill="#B8860B"/>
      <circle cx="12" cy="18" r="1" fill="#B8860B"/>
      <circle cx="17" cy="18" r="1" fill="#B8860B"/>
      <g transform="translate(6, 8)">
        <rect x="-2" y="4" width="4" height="4" rx="1" fill="#FFD700"/><!-- muscular body -->
        <ellipse cx="0" cy="4.5" rx="2.2" ry="1.5" fill="#FFA500"/><!-- chest -->
        <ellipse cx="0" cy="2" rx="1.8" ry="2" fill="#FFA500"/><!-- head -->
        <ellipse cx="0" cy="3" rx="1.2" ry="0.8" fill="#FFD700"/><!-- muzzle -->
        <ellipse cx="0" cy="3.3" rx="0.4" ry="0.3" fill="#B8860B"/><!-- nose -->
        <ellipse cx="-0.6" cy="1.5" rx="0.5" ry="0.35" fill="#000000"/><!-- lion eye -->
        <ellipse cx="0.6" cy="1.5" rx="0.5" ry="0.35" fill="#000000"/><!-- lion eye -->
        <path d="M -1.3 1 L -1.8 0 L -1 0.5 Z" fill="#FFA500"/><!-- ear -->
        <path d="M 1.3 1 L 1.8 0 L 1 0.5 Z" fill="#FFA500"/><!-- ear -->
        <circle cx="0" cy="2" r="2.5" fill="none" stroke="#B8860B" stroke-width="0.6" opacity="0.7"/>
        <path d="M -2 1 Q -2.5 0.5 -2.2 0 M 2 1 Q 2.5 0.5 2.2 0" stroke="#B8860B" stroke-width="0.5" fill="none"/>
      </g>
      <g transform="translate(18, 7)">
        <rect x="-2" y="4" width="4" height="4" rx="1" fill="#FFD700"/><!-- muscular body -->
        <ellipse cx="0" cy="4.5" rx="2.2" ry="1.5" fill="#FFA500"/><!-- chest -->
        <ellipse cx="0" cy="2" rx="1.8" ry="2" fill="#FFA500"/><!-- head -->
        <ellipse cx="0" cy="3" rx="1.2" ry="0.8" fill="#FFD700"/><!-- muzzle -->
        <ellipse cx="0" cy="3.3" rx="0.4" ry="0.3" fill="#B8860B"/><!-- nose -->
        <ellipse cx="-0.6" cy="1.5" rx="0.5" ry="0.35" fill="#000000"/><!-- lion eye -->
        <ellipse cx="0.6" cy="1.5" rx="0.5" ry="0.35" fill="#000000"/><!-- lion eye -->
        <path d="M -1.3 1 L -1.8 0 L -1 0.5 Z" fill="#FFA500"/><!-- ear -->
        <path d="M 1.3 1 L 1.8 0 L 1 0.5 Z" fill="#FFA500"/><!-- ear -->
        <circle cx="0" cy="2" r="2.5" fill="none" stroke="#B8860B" stroke-width="0.6" opacity="0.7"/>
        <path d="M -2 1 Q -2.5 0.5 -2.2 0 M 2 1 Q 2.5 0.5 2.2 0" stroke="#B8860B" stroke-width="0.5" fill="none"/>
      </g>
      <circle cx="12" cy="3" r="3.5" fill="#60a5fa"/>
      <circle cx="12" cy="3" r="2.8" fill="none" stroke="#FFD700" stroke-width="0.4"/>
      <circle cx="12" cy="3" r="0.8" fill="#FFD700"/>
      <line x1="12" y1="0.5" x2="12" y2="5.5" stroke="#FFD700" stroke-width="0.3"/>
      <line x1="14.5" y1="3" x2="9.5" y2="3" stroke="#FFD700" stroke-width="0.3"/>
      <line x1="14" y1="1" x2="10" y2="5" stroke="#FFD700" stroke-width="0.3"/>
      <line x1="14" y1="5" x2="10" y2="1" stroke="#FFD700" stroke-width="0.3"/>
    </g>
    <rect x="38" y="10" width="4" height="15" fill="#FF9933" rx="2"/>
    <rect x="43" y="10" width="4" height="15" fill="#ffffff" rx="2"/>
    <rect x="48" y="10" width="4" height="15" fill="#138808" rx="2"/>
    <text x="60" y="22" font-family="Arial, Helvetica, sans-serif" font-size="14" font-weight="700" fill="#f8fafc">
      Made in <tspan fill="#FF9933">I</tspan><tspan fill="#60a5fa">N</tspan><tspan fill="#4ade80">D</tspan><tspan fill="#FF9933">I</tspan><tspan fill="#60a5fa">A</tspan>
    </text>
  </g>
  
  <!-- Accent line -->
  <rect x="140" y="250" width="180" height="3" fill="url(#gradientDark)" rx="1.5"/>
  
  <defs>
    <linearGradient id="gradientDark" x1="0%" y1="0%" x2="100%" y2="0%">
      <stop offset="0%" style="stop-color:#818cf8;stop-opacity:1" />
      <stop offset="50%" style="stop-color:#a78bfa;stop-opacity:1" />
      <stop offset="100%" style="stop-color:#f0abfc;stop-opacity:1" />
    </linearGradient>
  </defs>
</svg>
