<svg width="1200" height="220" xmlns="http://www.w3.org/2000/svg">
  <!-- Background -->
  <rect width="1200" height="220" fill="#ffffff"/>
  
  <!-- Icon -->
  <g transform="translate(30, 55)">
    <defs>
      <linearGradient id="buildingGradH" x1="0%" y1="0%" x2="0%" y2="100%">
        <stop offset="0%" style="stop-color:#667eea;stop-opacity:1" />
        <stop offset="100%" style="stop-color:#764ba2;stop-opacity:1" />
      </linearGradient>
    </defs>
    
    <rect x="0" y="15" width="45" height="60" fill="url(#buildingGradH)" rx="3"/>
    <rect x="8" y="23" width="9" height="9" fill="#ffffff" opacity="0.9"/>
    <rect x="8" y="38" width="9" height="9" fill="#ffffff" opacity="0.9"/>
    <rect x="8" y="53" width="9" height="9" fill="#ffffff" opacity="0.9"/>
    <rect x="28" y="23" width="9" height="9" fill="#ffffff" opacity="0.9"/>
    <rect x="28" y="38" width="9" height="9" fill="#ffffff" opacity="0.9"/>
    <rect x="28" y="53" width="9" height="9" fill="#ffffff" opacity="0.9"/>
    <circle cx="22" cy="8" r="6" fill="#764ba2"/>
    <circle cx="52" cy="30" r="5" fill="#f093fb"/>
    <line x1="26" y1="10" x2="48" y2="28" stroke="#764ba2" stroke-width="2" opacity="0.6"/>
    <path d="M 48 41 L 56 49 L 64 34" stroke="#000080" stroke-width="2.5" fill="none" stroke-linecap="round"/>
  </g>
  
  <!-- Main Text -->
  <text x="110" y="90" font-family="Arial, Helvetica, sans-serif" font-size="48" font-weight="bold" fill="#1e293b">
    Estatelytic<tspan fill="#667eea">AI</tspan>
  </text>
  
  <!-- Divider -->
  <line x1="480" y1="55" x2="480" y2="130" stroke="#e2e8f0" stroke-width="2"/>
  
  <!-- Tagline -->
  <text x="510" y="75" font-family="Arial, Helvetica, sans-serif" font-size="28" font-weight="600" fill="#667eea">
    India's Property UPI
  </text>
  <text x="510" y="110" font-family="Arial, Helvetica, sans-serif" font-size="20" font-weight="500" fill="#64748b">
    Transparent • Tracked • Trusted
  </text>
  
  <!-- Made in INDIA badge with Official Ashoka Pillar -->
  <g transform="translate(510, 125)">
    <rect x="0" y="0" width="170" height="32" rx="16" fill="#f8fafc" stroke="#e2e8f0" stroke-width="1.5"/>
    
    <!-- Official Ashoka Pillar -->
    <g transform="translate(7, 4)">
      <ellipse cx="12" cy="22" rx="6" ry="2" fill="#B8860B"/>
      <path d="M 6 22 Q 6 19 12 18 Q 18 19 18 22" fill="#D4AF37" stroke="#B8860B" stroke-width="0.3"/>
      <ellipse cx="12" cy="16" rx="7" ry="2" fill="#D4AF37"/>
      <rect x="5" y="16" width="14" height="3" fill="#C19A6B" rx="0.5"/>
      <circle cx="7" cy="17" r="1" fill="#8B6914"/>
      <circle cx="12" cy="17" r="1" fill="#8B6914"/>
      <circle cx="17" cy="17" r="1" fill="#8B6914"/>
      <g transform="translate(6, 7)">
        <ellipse cx="0" cy="5" rx="2.5" ry="3" fill="#D4AF37"/>
        <circle cx="0" cy="2" r="2" fill="#B8860B"/>
        <circle cx="-0.6" cy="1.5" r="0.4" fill="#000000"/>
        <circle cx="0.6" cy="1.5" r="0.4" fill="#000000"/>
        <path d="M -1.5 2 Q -2 1 -1.5 0.5 M 1.5 2 Q 2 1 1.5 0.5" stroke="#8B6914" stroke-width="0.4" fill="none"/>
      </g>
      <g transform="translate(18, 7)">
        <ellipse cx="0" cy="5" rx="2.5" ry="3" fill="#D4AF37"/>
        <circle cx="0" cy="2" r="2" fill="#B8860B"/>
        <circle cx="-0.6" cy="1.5" r="0.4" fill="#000000"/>
        <circle cx="0.6" cy="1.5" r="0.4" fill="#000000"/>
        <path d="M -1.5 2 Q -2 1 -1.5 0.5 M 1.5 2 Q 2 1 1.5 0.5" stroke="#8B6914" stroke-width="0.4" fill="none"/>
      </g>
      <circle cx="12" cy="3" r="3.5" fill="#000080"/>
      <circle cx="12" cy="3" r="2.8" fill="none" stroke="#FFD700" stroke-width="0.4"/>
      <circle cx="12" cy="3" r="0.8" fill="#FFD700"/>
      <line x1="12" y1="0.5" x2="12" y2="5.5" stroke="#FFD700" stroke-width="0.3"/>
      <line x1="14.5" y1="3" x2="9.5" y2="3" stroke="#FFD700" stroke-width="0.3"/>
      <line x1="14" y1="1" x2="10" y2="5" stroke="#FFD700" stroke-width="0.3"/>
      <line x1="14" y1="5" x2="10" y2="1" stroke="#FFD700" stroke-width="0.3"/>
    </g>
    <rect x="38" y="8" width="4" height="16" fill="#FF9933" rx="2"/>
    <rect x="43" y="8" width="4" height="16" fill="#ffffff" rx="2" stroke="#d1d5db" stroke-width="0.5"/>
    <rect x="48" y="8" width="4" height="16" fill="#138808" rx="2"/>
    <text x="60" y="21" font-family="Arial, Helvetica, sans-serif" font-size="13" font-weight="700" fill="#1e293b">
      Made in <tspan fill="#FF9933">I</tspan><tspan fill="#000080">N</tspan><tspan fill="#138808">D</tspan><tspan fill="#FF9933">I</tspan><tspan fill="#000080">A</tspan>
    </text>
  </g>
  
  <!-- Gradient accent -->
  <rect x="110" y="135" width="900" height="2" fill="url(#gradientH)" rx="1"/>
  
  <defs>
    <linearGradient id="gradientH" x1="0%" y1="0%" x2="100%" y2="0%">
      <stop offset="0%" style="stop-color:#667eea;stop-opacity:1" />
      <stop offset="50%" style="stop-color:#764ba2;stop-opacity:1" />
      <stop offset="100%" style="stop-color:#f093fb;stop-opacity:0.5" />
    </linearGradient>
  </defs>
</svg>
