<svg width="1200" height="220" xmlns="http://www.w3.org/2000/svg">
  <!-- Background -->
  <rect width="1200" height="220" fill="#ffffff"/>
  
  <!-- Icon -->
  <g transform="translate(30, 55)">
    <defs>
      <linearGradient id="buildingGradH" x1="0%" y1="0%" x2="0%" y2="100%">
        <stop offset="0%" style="stop-color:#667eea;stop-opacity:1" />
        <stop offset="100%" style="stop-color:#764ba2;stop-opacity:1" />
      </linearGradient>
    </defs>
    
    <rect x="0" y="15" width="45" height="60" fill="url(#buildingGradH)" rx="3"/>
    <rect x="8" y="23" width="9" height="9" fill="#ffffff" opacity="0.9"/>
    <rect x="8" y="38" width="9" height="9" fill="#ffffff" opacity="0.9"/>
    <rect x="8" y="53" width="9" height="9" fill="#ffffff" opacity="0.9"/>
    <rect x="28" y="23" width="9" height="9" fill="#ffffff" opacity="0.9"/>
    <rect x="28" y="38" width="9" height="9" fill="#ffffff" opacity="0.9"/>
    <rect x="28" y="53" width="9" height="9" fill="#ffffff" opacity="0.9"/>
    <circle cx="22" cy="8" r="6" fill="#764ba2"/>
    <circle cx="52" cy="30" r="5" fill="#f093fb"/>
    <line x1="26" y1="10" x2="48" y2="28" stroke="#764ba2" stroke-width="2" opacity="0.6"/>
    <path d="M 48 41 L 56 49 L 64 34" stroke="#000080" stroke-width="2.5" fill="none" stroke-linecap="round"/>
  </g>
  
  <!-- Main Text -->
  <text x="110" y="90" font-family="Arial, Helvetica, sans-serif" font-size="48" font-weight="bold" fill="#1e293b">
    Estatelytic<tspan fill="#667eea">AI</tspan>
  </text>
  
  <!-- Divider -->
  <line x1="480" y1="55" x2="480" y2="130" stroke="#e2e8f0" stroke-width="2"/>
  
  <!-- Tagline -->
  <text x="510" y="75" font-family="Arial, Helvetica, sans-serif" font-size="28" font-weight="600" fill="#667eea">
    India's Property UPI
  </text>
  <text x="510" y="110" font-family="Arial, Helvetica, sans-serif" font-size="20" font-weight="500" fill="#64748b">
    Transparent • Tracked • Trusted
  </text>
  
  <!-- Made in INDIA badge with Official Ashoka Pillar -->
  <g transform="translate(510, 125)">
    <rect x="0" y="0" width="170" height="32" rx="16" fill="#f8fafc" stroke="#e2e8f0" stroke-width="1.5"/>
    <g transform="translate(10, 6)">
      <rect x="0" y="0" width="28" height="6" fill="#FF9933"/>
      <rect x="0" y="6" width="28" height="6" fill="#ffffff" stroke="#d1d5db" stroke-width="0.3"/>
      <rect x="0" y="12" width="28" height="6" fill="#138808"/>
      <circle cx="14" cy="9" r="2.5" fill="none" stroke="#000080" stroke-width="0.3"/>
      <circle cx="14" cy="9" r="0.4" fill="#000080"/>
      <line x1="14" y1="6.5" x2="14" y2="11.5" stroke="#000080" stroke-width="0.2"/>
      <line x1="16.5" y1="9" x2="11.5" y2="9" stroke="#000080" stroke-width="0.2"/>
      <line x1="15.8" y1="7.2" x2="12.2" y2="10.8" stroke="#000080" stroke-width="0.2"/>
      <line x1="15.8" y1="10.8" x2="12.2" y2="7.2" stroke="#000080" stroke-width="0.2"/>
    </g>
    <text x="50" y="19" font-family="Arial, Helvetica, sans-serif" font-size="14" font-weight="700" fill="#1e293b">
      Made in <tspan fill="#FF9933">I</tspan><tspan fill="#000080">N</tspan><tspan fill="#138808">D</tspan><tspan fill="#FF9933">I</tspan><tspan fill="#000080">A</tspan>
    </text>
  </g>
</svg>
