<svg width="800" height="320" xmlns="http://www.w3.org/2000/svg">
  <!-- Dark Background -->
  <rect width="800" height="320" fill="#0f172a"/>
  
  <!-- Icon -->
  <g transform="translate(40, 75)">
    <defs>
      <linearGradient id="buildingGradDark" x1="0%" y1="0%" x2="0%" y2="100%">
        <stop offset="0%" style="stop-color:#818cf8;stop-opacity:1" />
        <stop offset="100%" style="stop-color:#a78bfa;stop-opacity:1" />
      </linearGradient>
    </defs>
    
    <rect x="0" y="20" width="60" height="80" fill="url(#buildingGradDark)" rx="4"/>
    <rect x="10" y="30" width="12" height="12" fill="#1e293b" opacity="0.8"/>
    <rect x="10" y="50" width="12" height="12" fill="#1e293b" opacity="0.8"/>
    <rect x="10" y="70" width="12" height="12" fill="#1e293b" opacity="0.8"/>
    <rect x="38" y="30" width="12" height="12" fill="#1e293b" opacity="0.8"/>
    <rect x="38" y="50" width="12" height="12" fill="#1e293b" opacity="0.8"/>
    <rect x="38" y="70" width="12" height="12" fill="#1e293b" opacity="0.8"/>
    <circle cx="30" cy="10" r="8" fill="#a78bfa"/>
    <circle cx="70" cy="40" r="6" fill="#f0abfc"/>
    <line x1="35" y1="12" x2="65" y2="38" stroke="#a78bfa" stroke-width="2" opacity="0.7"/>
    <path d="M 65 55 L 75 65 L 85 45" stroke="#4ade80" stroke-width="3" fill="none" stroke-linecap="round"/>
  </g>
  
  <!-- Main Text -->
  <text x="140" y="120" font-family="Arial, Helvetica, sans-serif" font-size="52" font-weight="bold" fill="#f8fafc">
    Estatelytic<tspan fill="#818cf8">AI</tspan>
  </text>
  
  <!-- Tagline -->
  <text x="140" y="160" font-family="Arial, Helvetica, sans-serif" font-size="24" font-weight="600" fill="#818cf8">
    India's Property UPI
  </text>
  <text x="140" y="190" font-family="Arial, Helvetica, sans-serif" font-size="18" font-weight="500" fill="#94a3b8">
    Transparent • Tracked • Trusted
  </text>
  
  <!-- Made in INDIA badge (dark version) with Official Ashoka Pillar -->
  <g transform="translate(140, 210)">
    <rect x="0" y="0" width="170" height="35" rx="17" fill="#1e293b" stroke="#334155" stroke-width="1.5"/>
    <g transform="translate(10, 8)">
      <rect x="0" y="0" width="28" height="6" fill="#FF9933"/>
      <rect x="0" y="6" width="28" height="6" fill="#ffffff"/>
      <rect x="0" y="12" width="28" height="6" fill="#138808"/>
      <circle cx="14" cy="9" r="2.5" fill="none" stroke="#60a5fa" stroke-width="0.3"/>
      <circle cx="14" cy="9" r="0.4" fill="#60a5fa"/>
      <line x1="14" y1="6.5" x2="14" y2="11.5" stroke="#60a5fa" stroke-width="0.2"/>
      <line x1="16.5" y1="9" x2="11.5" y2="9" stroke="#60a5fa" stroke-width="0.2"/>
      <line x1="15.8" y1="7.2" x2="12.2" y2="10.8" stroke="#60a5fa" stroke-width="0.2"/>
      <line x1="15.8" y1="10.8" x2="12.2" y2="7.2" stroke="#60a5fa" stroke-width="0.2"/>
    </g>
    <text x="50" y="21" font-family="Arial, Helvetica, sans-serif" font-size="14" font-weight="700" fill="#f1f5f9">
      Made in <tspan fill="#FF9933">I</tspan><tspan fill="#60a5fa">N</tspan><tspan fill="#138808">D</tspan><tspan fill="#FF9933">I</tspan><tspan fill="#60a5fa">A</tspan>
    </text>
  </g>
</svg>
